<svg xmlns="http://www.w3.org/2000/svg" xmlns:xlink="http://www.w3.org/1999/xlink" xmlns:lucid="lucid" width="2790" height="1570"><g transform="translate(1007.0000702010234 574.1111420613734)" lucid:page-tab-id="0_0"><path d="M-1002-569.1h2780v1560h-2780z" stroke="#e7157b" stroke-width="10" fill="#fff" fill-opacity="0"/><path d="M-1002-569.1h56v56h-56z" fill="#e7157b"/><path d="M-991.47-558.58h34.94v34.94h-34.94zm4.2 11.2h11.2v11.14h-11.2zm14.1 14v-.06a5.43 5.43 0 0 1 5.44-5.43 5.43 5.43 0 0 1 5.43 5.43 5.43 5.43 0 0 1-5.43 5.43 5.43 5.43 0 0 1-5.43-5.44v-.05" stroke="#fff" stroke-width="1.23" fill="none"/><path d="M-965.54-556.12l6 12.15h-12zm-.06 2.35l-4.3 8.57h8.6z" fill="#fff"/><use xlink:href="#a" transform="matrix(1,0,0,1,-931.0000702010234,-549.1111420613734) translate(0 21.52777777777778)"/><use xlink:href="#b" transform="matrix(1,0,0,1,-931.0000702010234,-549.1111420613734) translate(56.477864583333336 21.52777777777778)"/><path d="M638-463.1a6 6 0 0 1 6-6h1088a6 6 0 0 1 6 6v1308a6 6 0 0 1-6 6H644a6 6 0 0 1-6-6z" stroke="#000" stroke-width="2" fill="#fff"/><path d="M1199.5-463.1a6 6 0 0 1 6-6h125a6 6 0 0 1 6 6v78.66a6 6 0 0 1-6 6h-125a6 6 0 0 1-6-6z" fill="none"/><use xlink:href="#c" transform="matrix(1,0,0,1,1204.5020912573095,-464.11114206137336) translate(0 64.75130208333334)"/><path d="M-922 36.9a6 6 0 0 1 6-6H132a6 6 0 0 1 6 6v668a6 6 0 0 1-6 6H-916a6 6 0 0 1-6-6z" stroke="#000" stroke-width="2" fill="#fff"/><path d="M-632.12 539.55c-1.54 0-3.3.22-5.28.22l-1.32.22c-7.7.65-16.06 1.3-20.9-.23l-2.42-.44c-2.2-.88-4.62-1.76-7.04-2.86-7.04-2.86-15.84-6.6-25.74-6.38l-.22-9.9c12.1-.45 22.44 3.95 29.92 7.03 2.2 1.1 4.18 1.76 5.72 2.42l2.42.66c.66 0 1.32.23 2.42.23l-.22-.88c-5.5-21.78-25.74-37.62-49.5-38.5-9.68-.22-19.36 1.98-27.72 6.6-12.32 9.02-19.8 22.66-20.24 37.4v1.54c4.84 3.07 10.78 4.83 17.38 5.5 13.42-5.5 32.78-6.83 43.78-5.5 8.36.87 17.16 5.05 24.42 8.57 3.96 1.76 8.14 3.74 10.12 4.18 3.3.44 10.56 0 16.94-.44h.66c1.98-.2 4.18-.43 5.94-.43h.66l.22-9.02zm-122.32 10.56c1.54-.2 3.08-.65 4.62-1.1-3.96-1.53-7.7-3.5-11-5.93-2.42 1.1-4.84 1.98-7.26 3.08-2.2.88-5.06 1.98-7.26 3.08 3.52 1.1 9.68 1.98 17.6 1.1l3.3-.22zm61.38-73.25c-10.12-.22-20.02 1.98-28.82 6.38 5.94-1.54 11.88-2.2 18.04-1.98 28.16.88 52.36 19.8 58.74 45.98l.88 3.08c1.32 0 2.86-.2 4.62-.2.88-.23 1.54-.23 1.76-.23.66 0 1.32-.22 1.98-.22-3.3-28.82-27.72-51.7-57.2-52.8zm71.06 60.28l-.44 14.08c-.22 3.97-3.3 7.05-7.26 7.27h-2.64c-1.98.22-3.96.22-5.94.44h-.66c-7.7.67-14.96 1.1-19.36.23-3.3-.44-7.48-2.42-12.54-4.84-6.6-3.1-14.74-7.05-21.34-7.7-11.66-1.33-33.88.87-43.34 7.25-4.84 3.3-13.64 5.94-21.34 6.6h-3.08l-.66.22h-3.3c-7.04 0-16.5-1.1-21.34-6.16-2.64-2.63-2.42-5.5-2.2-6.8 1.32-5.07 7.26-7.5 15.62-10.8 2.42-1.1 4.62-1.97 7.04-3.07.66-20.9 10.78-40.04 27.5-52.8 12.54-9.68 28.38-14.74 44.44-14.08 35.2 1.1 64.02 28.6 67.1 63.36.44.45 1.1.67 1.54 1.1 1.54 1.55 2.2 3.53 2.2 5.73zm-130.02-91.3h15.18v-14.96h-15.18v14.96zm25.08-20.02v25.1c0 2.85-2.2 5.05-5.06 5.05h-24.86c-2.86 0-5.06-2.2-5.06-5.06v-25.1c0-2.63 2.2-4.83 5.06-4.83H-732c2.86 0 5.06 2.2 5.06 4.84zm-75.02 20.03H-787v-14.96h-14.96v14.96zm25.08-20.02v25.1c0 2.85-2.2 5.05-5.06 5.05h-25.08c-2.64 0-5.06-2.2-5.06-5.06v-25.1c0-2.63 2.42-4.83 5.06-4.83h25.08c2.86 0 5.06 2.2 5.06 4.84zm24.86-29.9h15.18v-14.97h-15.18v14.96zm25.08 5.05c0 2.64-2.2 4.84-5.06 4.84h-24.86c-2.86 0-5.06-2.2-5.06-4.85v-25.08c0-2.64 2.2-5.06 5.06-5.06H-732c2.86 0 5.06 2.43 5.06 5.07v25.08zm-75.02-5.06H-787v-14.97h-14.96v14.96zm25.08 5.05c0 2.64-2.2 4.84-5.06 4.84h-25.08c-2.64 0-5.06-2.2-5.06-4.85v-25.08c0-2.64 2.42-5.06 5.06-5.06h25.08c2.86 0 5.06 2.43 5.06 5.07v25.08zm24.86 84.92h-40.04c-2.64 0-4.84 2.2-4.84 5.06v69.96h-33.44c-6.38 0-11.66-4.63-11.66-10.13V351c0-5.5 5.28-10.1 11.66-10.1h121.88c6.38 0 11.66 4.6 11.66 10.1v104.95h-10.12V351c0 .23-.66-.2-1.54-.2h-121.88c-1.1 0-1.54.43-1.76.65v199.32c.22-.22.66.22 1.76.22h23.32v-60.07c0-8.36 6.82-14.96 14.96-14.96h40.04v9.9z" stroke="#000" stroke-opacity="0" fill="#dd344c"/><use xlink:href="#d" transform="matrix(1,0,0,1,-1062.0000702010234,569.8888579386266) translate(221.44965277777777 21.52777777777778)"/><use xlink:href="#e" transform="matrix(1,0,0,1,-1062.0000702010234,569.8888579386266) translate(269.07335069444446 21.52777777777778)"/><use xlink:href="#f" transform="matrix(1,0,0,1,-1062.0000702010234,569.8888579386266) translate(332.6909722222222 21.52777777777778)"/><path d="M-132.65 541.9c2.2-45.2 38.32-81 82.32-81 14.85 0 29.5 4 42.16 12 23.65 14.6 38.7 40.6 40.15 69h-164.63zm37.4-137c0-24.8 20.17-45 44.92-45s44.9 20.2 44.9 45-20.15 44.8-44.9 44.8-44.92-20-44.92-44.8zm92.03 60.2c-8.06-5-16.68-8.4-25.66-10.6 19.25-8.4 32.63-27.4 32.63-49.6 0-29.8-24.2-54-54.08-54-29.9 0-54.1 24.2-54.1 54 0 22.2 13.4 41.2 32.65 49.6-40.15 10-70.22 47.4-70.22 91.8 0 2.6 2.02 4.6 4.58 4.6H36.75c2.57 0 4.58-2 4.58-4.6 0-33-17.05-64.2-44.55-81.2z" stroke="#000" stroke-opacity="0" fill="#232f3e"/><use xlink:href="#g" transform="matrix(1,0,0,1,-325.3334035343564,559.8888579386263) translate(187.509765625 38.75)"/><use xlink:href="#h" transform="matrix(1,0,0,1,-325.3334035343564,559.8888579386263) translate(273.232421875 38.75)"/><path d="M-922 30.9h120v120h-120z" fill="#dd344c"/><path d="M-900.98 119.3h77.96V62.36h-77.96v56.96zM-820 60.85v59.98c0 .82-.67 1.5-1.5 1.5h-81c-.83 0-1.5-.68-1.5-1.5V60.84c0-.82.67-1.5 1.5-1.5h81c.83 0 1.5.68 1.5 1.5zm-36.04 41.96v-2.96h22.52v2.96h-22.52zm19.58-8.95v-3.02h7.47v3.02h-7.46zm-19.58 0v-3.02h12.02v3.02h-12.02zm-22.42 6c0-.83-.68-1.52-1.52-1.52s-1.5.7-1.5 1.5c0 .83.66 1.52 1.5 1.52s1.52-.7 1.52-1.5zm2.94 0c0 1.94-1.26 3.58-2.94 4.2v3.28h-3.03v-3.27c-1.75-.63-3-2.27-3-4.22 0-2.52 2-4.54 4.52-4.54 2.44 0 4.46 2.02 4.46 4.54zm-17.98 11.96h26.96v-5.98h-5.96v-3.02h5.96v-4.47h-5.96V95.3h5.96v-4.47h-26.96v20.98zm4.54-24l17.97.07V77.35c0-3.47-4.2-6.5-8.98-6.5s-8.98 3.03-8.98 6.5V87.8zm-7.56 25.52v-24c0-.38.16-.76.5-1.07.25-.26.67-.44 1-.44h3.03V77.36c0-5.23 5.4-9.52 12.02-9.52 6.56 0 12.02 4.3 12.02 9.52v10.52h2.94c.84 0 1.5.63 1.5 1.45v24c0 .38-.16.82-.4 1.07-.35.24-.68.43-1.1.43h-30c-.83 0-1.5-.7-1.5-1.5zm64.5-28.48v-3.02h3.03v3.02h-3zm-24.02 0v-3.02h16.55v3.02h-16.54z" stroke="#000" stroke-opacity="0" fill="#fff"/><use xlink:href="#i" transform="matrix(1,0,0,1,-1042.0000702010234,159.88885793862664) translate(142.763671875 38.75)"/><path d="M-621.5 450.9h463.12" stroke="#3a414a" fill="none"/><path d="M-621.5 451.36h-3.5v-.95h3.5z" stroke="#3a414a" stroke-width=".05" fill="#3a414a"/><path d="M-143.62 450.9l-14.26 4.62v-9.27z" stroke="#3a414a" fill="#3a414a"/><path d="M1067.37-283.3c-2.08.2-3.75.62-5.4 1.45l-72.33 35.64c-3.96 1.86-6.67 5.2-7.5 9.57L964.2-156.4c-.82 3.76-.2 7.5 1.9 10.84.2.42.4.63.82 1.05l50.02 64.17c2.7 3.54 6.46 5.42 10.84 5.42h80.44c4.38 0 8.13-1.9 10.84-5.43l50.02-64.18c2.7-3.56 3.75-7.73 2.7-12.1l-17.92-80.03c-.83-4.37-3.54-7.7-7.5-9.58l-72.32-35.65c-2.3-1.04-4.37-1.66-6.67-1.46z" stroke="#000" stroke-opacity="0" stroke-width="0" fill="#326ce5"/><path d="M1067.34-289.1c-2.2.2-3.96.65-5.72 1.53l-76.34 37.62c-4.18 1.98-7.04 5.5-7.92 10.12l-18.92 84.7c-.88 3.96-.22 7.92 1.98 11.44.22.45.44.67.88 1.1l52.8 67.77c2.86 3.74 6.82 5.72 11.44 5.72h84.92c4.62 0 8.58-2 11.44-5.73l52.8-67.76c2.86-3.73 3.96-8.13 2.86-12.53l-18.92-84.7c-.88-4.62-3.74-8.14-7.92-10.12l-76.34-37.62c-2.42-1.1-4.62-1.76-7.04-1.54zm0 5.7c2.42 0 4.4.45 6.6 1.55l72.6 35.64c3.74 1.97 6.38 5.27 7.48 9.67l17.82 80.08c.88 4.4 0 8.36-2.64 11.88l-50.16 64.24c-2.64 3.52-6.38 5.5-10.78 5.5h-80.52c-4.4 0-8.14-1.98-10.78-5.5l-50.16-64.24c-.22-.22-.44-.66-.66-1.1-2.2-3.3-2.86-6.82-1.98-10.78l17.82-80.08c1.1-4.4 3.52-7.7 7.48-9.68l72.6-35.65c1.76-.88 3.3-1.32 5.28-1.54z" stroke="#000" stroke-opacity="0" stroke-width="0" fill="#fff"/><path d="M1005-233.55v4.67h4.92v-2.16h2.4v-5h-4.92c-1.9 0-2.4.67-2.4 2.5zm12.22 2.5h9.7v-5h-9.7zm14.62 0h9.7v-5h-9.7zm14.6 0h9.84v-5h-9.83zm14.63 0h9.82v-5h-9.83zm14.74 0h9.7v-5h-9.7zm14.62 0h9.7v-5h-9.7zm14.6 0h9.7v-5h-9.7zm14.63 0h8.94v-1.6h2.4v-.9c0-1.48-.64-2.62-2.4-2.5h-8.95zm6.42 13.44h4.92v-10.03h-4.93zM1005-213.75h4.92v-10H1005zm121.07 11.28h4.92v-10.02h-4.93zM1005-198.6h4.92v-10.13H1005zm121.07 11.17h4.92v-10.02h-4.93zM1005-183.56h4.92v-10.02H1005zm121.07 11.27h4.92v-10.12h-4.93zM1005-168.4h4.92v-10.13H1005zm121.07 11.16h4.92v-10.02h-4.93zM1005-153.4h4.92v-10H1005zm121.07 11.28h4.92v-10.13h-4.93zM1005-138.36h4.92v-10.02H1005zm121.07 11.27h4.92v-10h-4.93zM1005-124.7c-.12 2.06.76 2.5 2.4 2.5h1.5v-2.5h1.02v-8.53H1005zm8.7 2.5h9.82v-5h-9.82zm14.74 0h9.7v-5h-9.7zm14.6 0h9.7v-5h-9.7zm14.62 0h9.7v-5h-9.7zm14.62 0h9.7v-5h-9.7zm14.6 0h9.84v-5h-9.83zm14.75 0h9.7v-5h-9.7zm14.62 0h9.7v-5h-9.7z" stroke="#000" stroke-opacity="0" stroke-width="1.51" fill="#fff"/><path d="M1067.3-181.36c3.4 0 6.18 2.83 6.18 6.32 0 3.48-2.77 6.3-6.17 6.3s-6.17-2.82-6.17-6.3c0-3.5 2.77-6.32 6.17-6.32z" stroke="#000" stroke-opacity="0" stroke-width=".48" fill="#fff"/><path d="M1068.04-226.25l-37.9 17.24v25.85c0 23.87 16.15 46.22 37.9 51.62 21.75-5.4 37.9-27.75 37.9-51.62V-209zm20.08 69.34h-40.16v-34.68h5.75v-3.8c0-8.23 6.53-14.86 14.57-14.86 7.95 0 14.47 6.63 14.47 14.87v3.8h5.38z" stroke="#000" stroke-opacity="0" stroke-width=".48" fill="#fff"/><path d="M1068.04-204.7c-4.8 0-8.7 4-8.7 8.9v3.7h17.4v-3.77c-.05-4.9-3.9-8.83-8.7-8.84z" stroke="#000" stroke-opacity="0" stroke-width=".48" fill="#fff"/><use xlink:href="#j" transform="matrix(1,0,0,1,927.9999297989766,-60.11114206137336) translate(98.92578125 38.75)"/><path d="M1487.25 36.7c-2.08.2-3.75.6-5.4 1.45l-72.25 35.6c-3.95 1.86-6.66 5.2-7.5 9.57l-17.9 80.14c-.83 3.75-.2 7.5 1.88 10.82.2.42.4.63.83 1.04l49.97 64.12c2.7 3.53 6.46 5.4 10.83 5.4h80.35c4.37 0 8.12-1.87 10.83-5.4l49.96-64.12c2.7-3.54 3.74-7.7 2.7-12.07l-17.9-79.93c-.83-4.37-3.54-7.7-7.5-9.58l-72.23-35.6c-2.28-1.03-4.36-1.66-6.65-1.45z" stroke="#000" stroke-opacity="0" stroke-width="3.83" fill="#326ce5"/><path d="M1487.22 30.9c-2.2.2-3.96.65-5.72 1.53L1405.25 70c-4.18 1.98-7.03 5.5-7.9 10.1l-18.9 84.62c-.9 3.95-.23 7.9 1.97 11.42.22.44.44.66.88 1.1l52.74 67.7c2.85 3.72 6.8 5.7 11.42 5.7h84.83c4.6 0 8.56-1.98 11.4-5.7l52.75-67.7c2.86-3.73 3.96-8.13 2.86-12.52l-18.9-84.6c-.87-4.62-3.72-8.14-7.9-10.12l-76.25-37.57c-2.42-1.1-4.62-1.76-7.03-1.54zm0 5.92c2.4-.22 4.4.22 6.6 1.32l72.5 35.6c3.74 1.98 6.38 5.27 7.48 9.67l17.8 80c.88 4.4 0 8.35-2.64 11.86l-50.1 64.17c-2.64 3.52-6.38 5.5-10.77 5.5h-80.44c-4.4 0-8.13-1.98-10.77-5.5l-50.1-64.17c-.23-.22-.45-.65-.67-1.1-2.2-3.3-2.86-6.8-1.98-10.76l17.8-80c1.1-4.4 3.52-7.68 7.47-9.66l72.52-35.6c1.76-.88 3.3-1.32 5.28-1.54z" stroke="#000" stroke-opacity="0" stroke-width="3.83" fill="#fff"/><path d="M1453.24 234.6c-1.97 0-3.57-.4-4.74-1.22-1.18-.8-1.92-1.92-2.26-3.4l3.03-.45c.2.87.65 1.53 1.33 1.98.7.5 1.6.72 2.72.72 3.02 0 4.52-1.82 4.52-5.46v-3h-.03c-.57 1.2-1.36 2.1-2.35 2.7-.98.62-2.16.9-3.5.9-2.22 0-3.85-.73-4.9-2.26-1.04-1.53-1.57-3.93-1.57-7.2 0-3.3.56-5.75 1.7-7.3 1.12-1.58 2.82-2.38 5.12-2.38 1.3 0 2.4.32 3.34.93.94.6 1.7 1.45 2.2 2.58h.03c0-.37.03-.95.07-1.82.05-.83.08-1.3.13-1.4h2.87c-.06.65-.1 1.94-.1 3.9v14.3c0 5.26-2.52 7.9-7.6 7.9zm4.6-16.72c0-1.53-.2-2.82-.6-3.93-.4-1.1-.98-1.95-1.72-2.53-.73-.58-1.55-.87-2.48-.87-1.54 0-2.67.58-3.38 1.74-.7 1.12-1.05 3-1.05 5.58 0 2.56.33 4.4 1 5.5.66 1.14 1.8 1.7 3.38 1.7.96 0 1.8-.3 2.54-.87.74-.57 1.3-1.4 1.7-2.47.4-1.08.62-2.35.62-3.85zM1465.56 227.25V212.9c0-1.33-.03-2.77-.1-4.38h2.85c.1 2.12.15 3.4.15 3.84h.06c.5-1.6 1.05-2.7 1.68-3.3.63-.6 1.5-.88 2.64-.88.4 0 .82.06 1.23.17v2.86c-.4-.1-.93-.16-1.6-.16-1.26 0-2.22.55-2.87 1.68-.66 1.1-1 2.7-1 4.77v9.75zM1492.33 217.87c0 3.28-.7 5.72-2.1 7.32-1.4 1.6-3.43 2.4-6.1 2.4-2.64 0-4.64-.84-6-2.5-1.35-1.68-2.03-4.1-2.03-7.23 0-6.47 2.7-9.7 8.15-9.7 2.77 0 4.8.8 6.12 2.38 1.3 1.57 1.96 4.02 1.96 7.32zm-3.16 0c0-2.58-.4-4.47-1.14-5.63-.73-1.17-1.98-1.75-3.73-1.75-1.77 0-3.06.57-3.85 1.78-.78 1.18-1.18 3.04-1.18 5.6 0 2.45.38 4.32 1.16 5.56.78 1.24 2.02 1.84 3.67 1.84 1.82 0 3.12-.58 3.88-1.78.78-1.2 1.2-3.1 1.2-5.63zM1499.07 208.53v11.88c0 1.23.12 2.18.35 2.87.23.68.6 1.18 1.12 1.47.5.3 1.27.45 2.27.45 1.47 0 2.6-.52 3.45-1.55.84-1.03 1.26-2.44 1.26-4.27v-10.85h3.03v14.72c0 2.2.03 3.5.1 4h-2.84c-.03-.05-.04-.2-.06-.47 0-.25-.03-.54-.04-.86l-.06-1.87h-.04c-.7 1.3-1.5 2.2-2.43 2.74-.9.53-2.03.8-3.4.8-1.97 0-3.43-.52-4.37-1.53-.92-1.03-1.37-2.7-1.37-5.07v-12.47zM1530.6 217.8c0 6.52-2.22 9.8-6.67 9.8-2.8 0-4.7-1.08-5.65-3.28h-.08c.05.1.07 1.1.07 2.96v7.32h-3.02v-22.26c0-1.93-.04-3.2-.1-3.83h2.92l.04.5c.04.3.06.72.07 1.33.05.58.07.98.07 1.2h.06c.54-1.15 1.25-2 2.13-2.52.88-.54 2.04-.8 3.5-.8 2.24 0 3.9.76 5 2.3 1.12 1.55 1.67 3.97 1.67 7.3zm-3.16.05c0-2.58-.35-4.46-1.03-5.57-.68-1.13-1.76-1.7-3.25-1.7-1.2 0-2.13.28-2.8.8-.7.5-1.2 1.33-1.56 2.44-.36 1.08-.53 2.53-.53 4.27 0 2.47.38 4.27 1.14 5.43.77 1.16 2 1.75 3.72 1.75 1.5 0 2.58-.56 3.26-1.7.7-1.13 1.05-3.03 1.05-5.73z" stroke="#000" stroke-opacity="0" fill="#fff"/><path d="M1441.04 78.07c-5.73 0-10.42 4.74-10.42 10.73v91.56c0 6 4.7 10.73 10.42 10.73h93.68c5.72 0 10.42-4.75 10.42-10.74V88.8c0-6-4.7-10.73-10.42-10.73zm31.6 28.93c6.3 0 11.34 5.3 11.34 11.87 0 6.55-5.04 11.75-11.33 11.75-6.42 0-11.46-5.2-11.46-11.75 0-6.56 5.03-11.87 11.45-11.87zm30.47 0c6.42 0 11.46 5.3 11.46 11.87 0 6.55-5.04 11.75-11.45 11.75-6.3 0-11.44-5.2-11.44-11.75 0-6.56 5.15-11.87 11.45-11.87zm-30.45 31.54c8.8 0 26.68 4.52 26.68 13.78v9.84h-53.37v-9.84c0-9.26 17.75-13.78 26.7-13.78zm30.46 0c8.94 0 26.7 4.52 26.7 13.78v9.84H1507v-9.84c0-5.87-3.1-10.28-7.56-13.56 1.38-.22 2.64-.22 3.67-.22z" stroke="#000" stroke-opacity="0" stroke-width="3.77" fill="#fff"/><path d="M1285.72 316.6c-2.06.2-3.7.62-5.34 1.44l-71.22 35.1c-3.9 1.85-6.57 5.13-7.4 9.44l-17.64 79.02c-.82 3.7-.2 7.4 1.85 10.67.2.4.4.62.82 1.03l49.25 63.2c2.66 3.5 6.36 5.35 10.67 5.35h79.22c4.3 0 8-1.85 10.68-5.34l49.26-63.2c2.66-3.5 3.7-7.6 2.66-11.9l-17.65-78.82c-.83-4.3-3.5-7.6-7.4-9.44l-71.22-35.1c-2.25-1.02-4.3-1.64-6.56-1.43z" stroke="#000" stroke-opacity="0" stroke-width="3.83" fill="#326ce5"/><path d="M1285.68 310.9c-2.16.2-3.9.64-5.63 1.5l-75.18 37.06c-4.12 1.95-6.94 5.4-7.8 9.96l-18.64 83.42c-.86 3.9-.2 7.8 1.95 11.27.22.44.44.66.87 1.1l52 66.72c2.82 3.7 6.72 5.64 11.27 5.64h83.63c4.55 0 8.45-1.95 11.27-5.64l52-66.73c2.8-3.7 3.9-8.03 2.8-12.36l-18.62-83.42c-.87-4.55-3.68-8-7.8-9.96l-75.18-37.05c-2.4-1.08-4.55-1.73-6.94-1.5zm0 5.84c2.4-.22 4.34.22 6.5 1.3l71.5 35.1c3.7 1.95 6.3 5.2 7.37 9.53l17.55 78.87c.87 4.33 0 8.23-2.6 11.7l-49.4 63.27c-2.6 3.47-6.28 5.42-10.62 5.42h-79.3c-4.33 0-8-1.95-10.6-5.4l-49.4-63.28c-.23-.22-.45-.65-.66-1.08-2.17-3.25-2.82-6.72-1.95-10.62l17.55-78.87c1.08-4.33 3.46-7.58 7.36-9.53l71.5-35.1c1.74-.87 3.25-1.3 5.2-1.52z" stroke="#000" stroke-opacity="0" stroke-width="3.83" fill="#fff"/><path d="M1273.16 505.8v-14.15c0-1.3-.03-2.73-.1-4.3h2.82c.08 2.08.13 3.34.13 3.77h.07c.48-1.58 1.03-2.67 1.64-3.25.63-.58 1.5-.87 2.62-.87.4 0 .8.06 1.22.18v2.8c-.4-.1-.93-.16-1.6-.16-1.23 0-2.17.55-2.82 1.66-.65 1.1-.98 2.65-.98 4.7v9.63zM1299.56 496.5c0 6.43-2.2 9.64-6.6 9.64-1.35 0-2.48-.26-3.4-.74-.87-.52-1.6-1.34-2.17-2.47h-.04c0 .36-.03.9-.08 1.62-.03.72-.07 1.13-.1 1.26h-2.87c.07-.6.12-1.9.12-3.82v-21.5h2.97v7.2c0 .76-.03 1.63-.07 2.63h.06c.54-1.17 1.27-2.02 2.17-2.53.9-.5 2.06-.77 3.4-.77 2.26 0 3.92.8 4.98 2.36 1.07 1.56 1.6 3.95 1.6 7.13zm-3.13.1c0-2.6-.34-4.44-1-5.55-.66-1.13-1.73-1.7-3.22-1.7-1.67 0-2.9.6-3.67 1.8-.76 1.2-1.14 3.06-1.14 5.63 0 2.4.37 4.2 1.12 5.36.75 1.15 1.96 1.74 3.66 1.74 1.5 0 2.57-.6 3.24-1.72.67-1.15 1-3 1-5.56z" stroke="#000" stroke-opacity="0" fill="#fff"/><path d="M1224.3 357.34v4.6h4.84v-2.13h2.35v-4.93h-4.85c-1.6 0-2.35.68-2.35 2.47zm12.03 2.47h9.56v-4.93h-9.57zm14.4 0h9.55v-4.93h-9.56zm14.4 0h9.66v-4.93h-9.68zm14.38 0h9.7v-4.93h-9.7zm14.53 0h9.55v-4.93h-9.55zm14.4 0h9.54v-4.93h-9.55zm14.38 0h9.56v-4.93h-9.55zm14.4 0h8.8v-1.56h2.37v-.9c0-1.35-.5-2.47-2.36-2.47h-8.8zm6.33 13.24h4.84v-9.87h-4.84zm-119.23 3.8h4.84V367h-4.84zm119.23 11.1h4.84v-9.86h-4.84zm-119.23 3.7h4.84v-9.86h-4.84zm119.23 11.1h4.84v-9.85h-4.84zm-119.23 3.83h4.84v-9.87h-4.84zm119.23 11.1h4.84v-9.98h-4.84zm-119.23 3.7h4.84v-9.87h-4.84zm119.23 11.1h4.84v-9.87h-4.84zm-119.23 3.8h4.84v-9.86h-4.84zm119.23 11.1h4.84v-9.97h-4.84zm-119.23 3.7h4.84v-9.85h-4.84zm119.23 11.12h4.84v-9.88h-4.84zm-119.23 2.34c0 1.57.5 2.58 2.36 2.47h1.48v-2.46h1v-8.52h-4.84zm8.56 2.47h9.68v-4.93h-9.68zm14.52 0h9.55v-4.93h-9.56zm14.4 0h9.54v-4.93h-9.55zm14.38 0h9.55v-4.93h-9.54zm14.4 0h9.54v-4.93h-9.55zm14.38 0h9.68v-4.93h-9.68zm14.52 0h9.55v-4.93h-9.54zm14.4 0h9.54v-4.93h-9.55z" stroke="#000" stroke-opacity="0" stroke-width="3.77" fill="#fff"/><path d="M1248.77 410.94c0-8.18 6.5-14.82 14.37-14.82h18.56v-9.08h-18.56c-12.8 0-23.2 10.7-23.2 23.9s10.4 23.9 23.2 23.9h18.56v-9.08h-18.56c-7.88 0-14.38-6.64-14.38-14.82zm19 4.78h37.12v-9.56h-37.12zm41.76-28.7l-18.56.02v9.08h18.56c7.88 0 14.37 6.64 14.37 14.82s-6.5 14.82-14.38 14.82h-18.55v9.1h18.56c12.8 0 23.2-10.72 23.2-23.92 0-13.2-10.4-23.9-23.2-23.9z" stroke="#000" stroke-opacity="0" stroke-width="1.46" fill="#fff"/><use xlink:href="#k" transform="matrix(1,0,0,1,1147.9999297989766,536.5555246052936) translate(76.28211805555557 21.52777777777778)"/><path d="M1487.25-283.3c-2.08.2-3.75.6-5.4 1.45l-72.25 35.6c-3.95 1.87-6.66 5.2-7.5 9.57l-17.9 80.14c-.83 3.75-.2 7.5 1.88 10.82.2.42.4.63.83 1.04l49.97 64.12c2.7 3.53 6.46 5.4 10.83 5.4h80.35c4.37 0 8.12-1.87 10.83-5.4l49.96-64.12c2.7-3.54 3.74-7.7 2.7-12.07l-17.9-79.93c-.83-4.37-3.54-7.7-7.5-9.58l-72.23-35.6c-2.28-1.03-4.36-1.66-6.65-1.45z" stroke="#000" stroke-opacity="0" stroke-width="3.83" fill="#326ce5"/><path d="M1487.22-289.1c-2.2.2-3.96.65-5.72 1.53L1405.25-250c-4.18 1.98-7.03 5.5-7.9 10.1l-18.9 84.62c-.9 3.95-.23 7.9 1.97 11.42.22.44.44.66.88 1.1l52.74 67.7c2.85 3.72 6.8 5.7 11.42 5.7h84.83c4.6 0 8.56-1.98 11.4-5.7l52.75-67.7c2.86-3.73 3.96-8.13 2.86-12.52l-18.9-84.6c-.87-4.62-3.72-8.14-7.9-10.12l-76.25-37.57c-2.42-1.1-4.62-1.76-7.03-1.54zm0 5.92c2.4-.22 4.4.22 6.6 1.32l72.5 35.6c3.74 1.98 6.38 5.27 7.48 9.67l17.8 80c.88 4.4 0 8.35-2.64 11.86l-50.1 64.17c-2.64 3.52-6.38 5.5-10.77 5.5h-80.44c-4.4 0-8.13-1.98-10.77-5.5l-50.1-64.17c-.23-.22-.45-.65-.67-1.1-2.2-3.3-2.86-6.8-1.98-10.76l17.8-80c1.1-4.4 3.52-7.68 7.47-9.66l72.52-35.6c1.76-.88 3.3-1.32 5.28-1.54z" stroke="#000" stroke-opacity="0" stroke-width="3.83" fill="#fff"/><path d="M1458.33-110.6v11.9c0 1.2.1 2.16.35 2.85.23.68.6 1.18 1.12 1.46.5.32 1.27.47 2.26.47 1.47 0 2.62-.5 3.45-1.54.84-1.03 1.27-2.44 1.27-4.27v-10.85h3.02v14.73c0 2.2.02 3.5.1 4h-2.86l-.04-.47c0-.25-.03-.54-.04-.86l-.06-1.87h-.05c-.7 1.3-1.5 2.2-2.42 2.74-.9.54-2.03.8-3.4.8-1.97 0-3.43-.5-4.37-1.52-.92-1.03-1.37-2.7-1.37-5.07v-12.47zM1488.14-97.04c0 1.76-.64 3.1-1.95 4.08-1.3.95-3.1 1.43-5.43 1.43-2.25 0-4-.38-5.23-1.14-1.22-.77-2-1.97-2.4-3.6l2.68-.54c.26 1 .8 1.73 1.6 2.22.8.46 1.92.7 3.35.7 1.54 0 2.65-.26 3.35-.74.72-.5 1.08-1.22 1.08-2.2 0-.73-.24-1.33-.73-1.8-.5-.44-1.3-.82-2.38-1.1l-2.2-.6c-1.7-.48-2.96-.93-3.7-1.37-.73-.44-1.3-.98-1.7-1.62-.42-.62-.63-1.4-.63-2.32 0-1.7.6-3 1.77-3.9 1.18-.9 2.9-1.35 5.17-1.35 2 0 3.6.38 4.78 1.1 1.18.73 1.93 1.9 2.25 3.5l-2.73.35c-.17-.83-.62-1.47-1.35-1.92-.73-.44-1.7-.66-2.94-.66-1.35 0-2.37.22-3.02.64-.64.44-.97 1.08-.97 1.95 0 .52.14.97.4 1.32.28.33.67.64 1.2.87.54.25 1.63.58 3.33 1 1.6.4 2.75.8 3.46 1.17.7.35 1.25.74 1.65 1.17.4.42.74.9.96 1.5.24.53.34 1.17.34 1.9zM1494.02-100.57c0 2.13.42 3.8 1.3 4.97.84 1.16 2.1 1.75 3.76 1.75 1.3 0 2.36-.28 3.15-.82.8-.54 1.32-1.22 1.6-2.06l2.66.78c-1.1 2.95-3.56 4.43-7.42 4.43-2.7 0-4.74-.82-6.14-2.47-1.4-1.64-2.1-4.1-2.1-7.35 0-3.08.7-5.47 2.1-7.12 1.4-1.65 3.42-2.47 6.03-2.47 5.34 0 8 3.32 8 9.94v.43zm9.82-2.4c-.16-1.97-.64-3.4-1.45-4.3-.82-.9-1.98-1.36-3.48-1.36-1.47 0-2.63.5-3.5 1.52-.85 1-1.3 2.38-1.37 4.14zM1510.9-91.87v-14.36c0-1.32-.04-2.77-.1-4.37h2.85c.08 2.12.13 3.4.13 3.84h.07c.48-1.6 1.04-2.7 1.66-3.3.64-.6 1.53-.88 2.66-.88.4 0 .82.06 1.23.17v2.86c-.42-.12-.95-.18-1.62-.18-1.25 0-2.22.55-2.87 1.68-.65 1.1-1 2.7-1 4.77v9.76z" stroke="#000" stroke-opacity="0" fill="#fff"/><path d="M1441.05-243.7c-5.72 0-10.4 4.76-10.4 10.75v91.52c0 6 4.68 10.73 10.4 10.73h93.65c5.72 0 10.42-4.74 10.42-10.73v-91.52c0-6-4.7-10.74-10.42-10.74zm46.83 17.86c8.93 0 16.02 7.35 16.02 16.6 0 9.17-7.1 16.5-16.02 16.5-8.93 0-16.03-7.33-16.03-16.5 0-9.25 7.1-16.6 16.03-16.6zm0 44.18c12.47 0 37.43 6.44 37.43 19.32v13.8h-74.86v-13.8c0-12.88 24.96-19.32 37.44-19.32z" stroke="#000" stroke-opacity="0" stroke-width="3.77" fill="#fff"/><path d="M1487.88-68.86v83.34" stroke="#3a414a" fill="none"/><path d="M1488.35-68.85h-.95v-.5h.95z" stroke="#3a414a" stroke-width=".05" fill="#3a414a"/><path d="M1487.88 29.25l-4.64-14.27h9.27z" stroke="#3a414a" fill="#3a414a"/><path d="M1068.47 413.2l.07.9.2.83.34.8.45.74.56.66.65.56.74.44.8.34.84.2.88.07h93.3v.95H1074l-1-.08-.98-.24-.94-.4-.87-.52-.78-.66-.66-.77-.53-.87-.4-.94-.23-1-.07-.98V-19.1h.94zm0-466.3h-.94v-15.5h.94z" stroke="#3a414a" stroke-width=".05" fill="#3a414a"/><path d="M1068.47-68.6h-.94v-.5h.94z" fill="#3a414a"/><path stroke="#3a414a" stroke-width=".05" fill="#3a414a"/><path d="M1182.1 419.22l-14.27 4.64v-9.27z" fill="#3a414a"/><path d="M1183.63 419.22l-16.28 5.3v-10.6zm-15.33 3.98l12.25-3.98-12.25-3.98z" stroke="#3a414a" stroke-width=".05" fill="#3a414a"/><path d="M1487.88 251.14v162.08a6 6 0 0 1-6 6h-76.54" stroke="#3a414a" fill="none"/><path d="M1488.35 251.15h-.95v-.5h.95z" stroke="#3a414a" stroke-width=".05" fill="#3a414a"/><path d="M1390.58 419.22l14.26-4.63v9.26z" stroke="#3a414a" fill="#3a414a"/><path d="M807.37 156.7c-2.08.2-3.75.62-5.42 1.46l-72.3 35.63c-3.97 1.87-6.68 5.2-7.5 9.58L704.2 283.6c-.82 3.76-.2 7.5 1.9 10.84.2.42.4.63.82 1.05l50.02 64.17c2.7 3.54 6.46 5.42 10.84 5.42h80.44c4.38 0 8.13-1.9 10.84-5.43l50.02-64.18c2.7-3.56 3.75-7.72 2.7-12.1l-17.92-80.02c-.83-4.38-3.54-7.7-7.5-9.6l-72.32-35.63c-2.3-1.04-4.38-1.66-6.67-1.45z" stroke="#000" stroke-opacity="0" stroke-width="3.83" fill="#326ce5"/><path d="M807.34 150.9c-2.2.2-3.96.65-5.72 1.53l-76.34 37.62c-4.18 1.98-7.04 5.5-7.92 10.12l-18.92 84.7c-.88 3.96-.22 7.92 1.98 11.44.22.45.44.67.88 1.1l52.8 67.77c2.86 3.74 6.82 5.72 11.44 5.72h84.92c4.62 0 8.58-2 11.44-5.73l52.8-67.76c2.86-3.73 3.96-8.13 2.86-12.53l-18.92-84.7c-.88-4.62-3.74-8.14-7.92-10.12l-76.34-37.62c-2.42-1.1-4.62-1.76-7.04-1.54zm0 5.93c2.42-.22 4.4.22 6.6 1.32l72.6 35.64c3.74 1.97 6.38 5.27 7.48 9.67l17.82 80.08c.88 4.4 0 8.36-2.64 11.88l-50.16 64.24c-2.64 3.52-6.38 5.5-10.78 5.5h-80.52c-4.4 0-8.14-1.98-10.78-5.5l-50.16-64.24c-.22-.22-.44-.66-.66-1.1-2.2-3.3-2.86-6.82-1.98-10.78l17.82-80.08c1.1-4.4 3.52-7.7 7.48-9.68l72.6-35.65c1.76-.88 3.3-1.32 5.28-1.54z" stroke="#000" stroke-opacity="0" stroke-width="3.83" fill="#fff"/><path d="M787.8 216v9.96h71.05V216zM757.15 216v9.96h17.8V216zM813.63 242.6v9.97h45.23v-9.97zM782.97 242.6v9.97h17.8v-9.97zM813.63 269.2v10h45.23v-10zM782.97 269.2v10h17.8v-10zM787.8 295.8v10h71.05v-10zM757.15 295.8v10h17.8v-10z" stroke="#000" stroke-opacity="0" stroke-width="3.77" fill="#fff"/><use xlink:href="#l" transform="matrix(1,0,0,1,667.9999297989766,379.88885793862664) translate(42.275390625 38.75)"/><path d="M703.3 260.9H378.57a6 6 0 0 0-6 6v178a6 6 0 0 1-6 6H57.7" stroke="#3a414a" fill="none"/><path d="M703.7 261.36h-.42v-.95h.62z" stroke="#3a414a" stroke-width=".05" fill="#3a414a"/><path d="M42.95 450.9l14.27-4.65v9.27z" stroke="#3a414a" fill="#3a414a"/><defs><path d="M52 0l541-1490h220L1361 0h-200l-149-416H398L254 0H52zm404-582h497c-103-290-145-390-251-756-108 377-145 460-246 756" id="m"/><path d="M458 0L52-1490h194c108 439 233 855 324 1313 92-459 221-873 331-1313h216c110 438 234 854 330 1307 92-455 216-869 323-1307h196L1558 0h-221l-256-944c-26-95-50-200-73-331-22 122-44 223-73 331L680 0H458" id="n"/><path d="M657 26c-323 0-524-166-541-416h195c15 169 171 246 346 246 202 0 356-106 356-265 5-203-294-238-475-293-239-73-380-191-380-389 0-252 224-419 512-419 294 0 499 171 508 396H992c-17-145-151-228-328-228-193 0-321 102-321 242 0 156 175 211 284 241l149 41c160 44 422 134 422 412 0 244-197 432-541 432" id="o"/><g id="a"><use transform="matrix(0.010850694444444444,0,0,0.010850694444444444,0,0)" xlink:href="#m"/><use transform="matrix(0.010850694444444444,0,0,0.010850694444444444,14.073350694444445,0)" xlink:href="#n"/><use transform="matrix(0.010850694444444444,0,0,0.010850694444444444,35.970052083333336,0)" xlink:href="#o"/></g><path d="M613 24c-304 0-509-231-509-576 0-350 205-580 509-580 216 0 392 114 453 309l-173 49c-33-115-133-197-280-197-223 0-326 196-326 419 0 220 103 415 326 415 150 0 252-85 285-206l172 49C1010-95 832 24 613 24" id="p"/><path d="M613 24c-304 0-509-231-509-576 0-350 205-580 509-580 305 0 511 230 511 580 0 345-206 576-511 576zm0-161c226 0 329-195 329-415 0-222-103-419-329-419-223 0-326 196-326 419 0 220 103 415 326 415" id="q"/><path d="M537 14c-226 0-379-139-379-422v-710h180v695c0 172 97 275 253 275 160 0 281-109 281-300v-670h181V0H879v-209C806-46 684 14 537 14" id="r"/><path d="M338-670V0H158v-1118h173l1 207c72-158 192-221 342-221 226 0 378 139 378 422V0H872v-695c0-172-96-275-252-275-161 0-282 109-282 300" id="s"/><path d="M598-1118v154H368v674c0 100 37 144 132 144 23 0 62-6 92-12L629-6c-37 13-88 20-134 20-193 0-307-107-307-290v-688H20v-154h168v-266h180v266h230" id="t"/><g id="b"><use transform="matrix(0.010850694444444444,0,0,0.010850694444444444,0,0)" xlink:href="#m"/><use transform="matrix(0.010850694444444444,0,0,0.010850694444444444,15.33203125,0)" xlink:href="#p"/><use transform="matrix(0.010850694444444444,0,0,0.010850694444444444,28.02734375,0)" xlink:href="#p"/><use transform="matrix(0.010850694444444444,0,0,0.010850694444444444,40.72265625,0)" xlink:href="#q"/><use transform="matrix(0.010850694444444444,0,0,0.010850694444444444,54.04730902777778,0)" xlink:href="#r"/><use transform="matrix(0.010850694444444444,0,0,0.010850694444444444,67.1875,0)" xlink:href="#s"/><use transform="matrix(0.010850694444444444,0,0,0.010850694444444444,80.31684027777777,0)" xlink:href="#t"/></g><path d="M180 0v-1490h908v168H370v486h669v168H370v500h727V0H180" id="u"/><path d="M180 0v-1490h190c0 262 1 526-3 784 217-279 467-523 702-784h249L716-845 1319 0h-225L585-716 370-489V0H180" id="v"/><g id="c"><use transform="matrix(0.032552083333333336,0,0,0.032552083333333336,0,0)" xlink:href="#u"/><use transform="matrix(0.032552083333333336,0,0,0.032552083333333336,40.071614583333336,0)" xlink:href="#v"/><use transform="matrix(0.032552083333333336,0,0,0.032552083333333336,84.21223958333334,0)" xlink:href="#o"/></g><path d="M370-1490V0H180v-1490h190" id="w"/><path d="M180 0v-1490h270l367 940c28 72 75 218 110 339 35-117 81-264 110-339l362-940h271V0h-187c2-448-5-837 7-1287-157 497-311 829-483 1287H842C666-458 514-784 354-1284c12 438 5 843 7 1284H180" id="x"/><g id="d"><use transform="matrix(0.010850694444444444,0,0,0.010850694444444444,0,0)" xlink:href="#w"/><use transform="matrix(0.010850694444444444,0,0,0.010850694444444444,5.967881944444445,0)" xlink:href="#m"/><use transform="matrix(0.010850694444444444,0,0,0.010850694444444444,21.299913194444443,0)" xlink:href="#x"/></g><path d="M180 0v-1490h510c348 0 508 194 508 460 0 198-88 351-276 417L1256 0h-220L726-579c-117 2-238 0-356 1V0H180zm190-747h312c235 0 327-108 327-283 0-177-92-293-329-293H370v576" id="y"/><path d="M338-1490V0H158v-1490h180" id="z"/><path d="M628 24c-324 0-524-230-524-574 0-343 198-582 503-582 237 0 487 146 487 559v75H286c9 234 145 362 343 362 132 0 231-58 273-172l174 48C1024-91 857 24 628 24zM287-650h624c-17-190-120-322-304-322-192 0-309 151-320 322" id="A"/><path d="M538 24C308 24 148-78 108-271l171-41c32 123 123 178 257 178 156 0 256-77 256-169 0-77-54-128-164-154l-186-44c-203-48-300-148-300-305 0-192 176-326 414-326 230 0 351 112 402 269l-163 42c-31-80-94-158-238-158-133 0-233 69-233 162 0 83 57 129 188 160l169 40c203 48 298 149 298 302 0 196-179 339-441 339" id="B"/><g id="e"><use transform="matrix(0.010850694444444444,0,0,0.010850694444444444,0,0)" xlink:href="#y"/><use transform="matrix(0.010850694444444444,0,0,0.010850694444444444,13.975694444444445,0)" xlink:href="#q"/><use transform="matrix(0.010850694444444444,0,0,0.010850694444444444,27.30034722222222,0)" xlink:href="#z"/><use transform="matrix(0.010850694444444444,0,0,0.010850694444444444,32.682291666666664,0)" xlink:href="#A"/><use transform="matrix(0.010850694444444444,0,0,0.010850694444444444,45.63802083333333,0)" xlink:href="#B"/></g><path d="M140 405l46-156c120 36 205 19 263-150l32-93L54-1118h197c107 313 237 620 324 950 87-331 219-637 326-950h196L606 167c-68 178-176 259-334 259-64 0-113-12-132-21" id="C"/><path d="M409 0L70-1118h191c89 329 165 560 243 925 75-353 154-601 240-925h192c85 325 161 564 235 922 77-354 157-598 244-922h191L1267 0h-179c-86-307-176-590-250-913C763-588 675-308 588 0H409" id="D"/><path d="M338-670V0H158v-1490h180v566c73-149 190-208 336-208 226 0 379 139 379 422V0H872v-695c0-172-96-275-252-275-161 0-282 109-282 300" id="E"/><path d="M158 0v-1118h174v172h12c41-113 157-188 290-188 26 0 70 2 91 3v181c-11-2-60-10-108-10-161 0-279 109-279 260V0H158" id="F"/><g id="f"><use transform="matrix(0.010850694444444444,0,0,0.010850694444444444,0,0)" xlink:href="#m"/><use transform="matrix(0.010850694444444444,0,0,0.010850694444444444,15.33203125,0)" xlink:href="#s"/><use transform="matrix(0.010850694444444444,0,0,0.010850694444444444,28.135850694444443,0)" xlink:href="#C"/><use transform="matrix(0.010850694444444444,0,0,0.010850694444444444,40.625,0)" xlink:href="#D"/><use transform="matrix(0.010850694444444444,0,0,0.010850694444444444,58.810763888888886,0)" xlink:href="#E"/><use transform="matrix(0.010850694444444444,0,0,0.010850694444444444,71.95095486111111,0)" xlink:href="#A"/><use transform="matrix(0.010850694444444444,0,0,0.010850694444444444,84.90668402777779,0)" xlink:href="#F"/><use transform="matrix(0.010850694444444444,0,0,0.010850694444444444,92.90364583333334,0)" xlink:href="#A"/></g><g id="g"><use transform="matrix(0.01953125,0,0,0.01953125,0,0)" xlink:href="#w"/><use transform="matrix(0.01953125,0,0,0.01953125,10.7421875,0)" xlink:href="#m"/><use transform="matrix(0.01953125,0,0,0.01953125,38.33984375,0)" xlink:href="#x"/></g><path d="M763 24c-353 0-583-224-583-531v-983h190v968c0 214 149 370 393 370 243 0 391-156 391-370v-968h190v983c0 307-230 531-581 531" id="G"/><g id="h"><use transform="matrix(0.01953125,0,0,0.01953125,0,0)" xlink:href="#G"/><use transform="matrix(0.01953125,0,0,0.01953125,29.765625,0)" xlink:href="#B"/><use transform="matrix(0.01953125,0,0,0.01953125,50.87890625,0)" xlink:href="#A"/><use transform="matrix(0.01953125,0,0,0.01953125,74.19921875,0)" xlink:href="#F"/></g><g id="i"><use transform="matrix(0.01953125,0,0,0.01953125,0,0)" xlink:href="#w"/><use transform="matrix(0.01953125,0,0,0.01953125,10.7421875,0)" xlink:href="#m"/><use transform="matrix(0.01953125,0,0,0.01953125,38.33984375,0)" xlink:href="#x"/></g><g id="j"><use transform="matrix(0.01953125,0,0,0.01953125,0,0)" xlink:href="#y"/><use transform="matrix(0.01953125,0,0,0.01953125,25.15625,0)" xlink:href="#q"/><use transform="matrix(0.01953125,0,0,0.01953125,49.140625,0)" xlink:href="#z"/><use transform="matrix(0.01953125,0,0,0.01953125,58.828125,0)" xlink:href="#A"/></g><path d="M180 0v-1490h528c311 0 458 177 458 395 0 191-114 278-244 313v14c139 9 302 137 302 371 0 225-148 397-499 397H180zm190-168h350c232 0 321-102 321-231 0-149-120-277-311-277H370v508zm0-668h328c160 0 286-101 286-255 0-129-87-231-280-231H370v486" id="H"/><path d="M158 0v-1118h180V0H158zm91-1301c-68 0-125-53-125-119s57-119 125-119c69 0 126 53 126 119s-57 119-126 119" id="I"/><path d="M577 24c-279 0-473-224-473-580 0-354 195-576 474-576 218 0 287 134 324 193h14v-551h180V0H922v-173h-20C865-111 790 24 577 24zm27-161c203 0 314-172 314-421 0-247-108-413-314-413-212 0-317 181-317 413 0 235 108 421 317 421" id="J"/><path d="M611 442c-248 0-391-105-460-228l146-94c47 65 117 165 314 165 178 0 307-82 307-266v-224h-17C863-141 792-18 576-18c-268 0-472-195-472-546 0-346 197-568 476-568 216 0 288 133 326 193h17v-179h175V29c0 289-215 413-487 413zm-5-620c203 0 314-146 314-390 0-237-108-403-314-403-213 0-319 180-319 403 0 230 109 390 319 390" id="K"/><g id="k"><use transform="matrix(0.010850694444444444,0,0,0.010850694444444444,0,0)" xlink:href="#y"/><use transform="matrix(0.010850694444444444,0,0,0.010850694444444444,13.975694444444445,0)" xlink:href="#q"/><use transform="matrix(0.010850694444444444,0,0,0.010850694444444444,27.30034722222222,0)" xlink:href="#z"/><use transform="matrix(0.010850694444444444,0,0,0.010850694444444444,32.682291666666664,0)" xlink:href="#A"/><use transform="matrix(0.010850694444444444,0,0,0.010850694444444444,45.63802083333333,0)" xlink:href="#H"/><use transform="matrix(0.010850694444444444,0,0,0.010850694444444444,60.177951388888886,0)" xlink:href="#I"/><use transform="matrix(0.010850694444444444,0,0,0.010850694444444444,65.55989583333333,0)" xlink:href="#s"/><use transform="matrix(0.010850694444444444,0,0,0.010850694444444444,78.6892361111111,0)" xlink:href="#J"/><use transform="matrix(0.010850694444444444,0,0,0.010850694444444444,92.29600694444441,0)" xlink:href="#I"/><use transform="matrix(0.010850694444444444,0,0,0.010850694444444444,97.67795138888887,0)" xlink:href="#s"/><use transform="matrix(0.010850694444444444,0,0,0.010850694444444444,110.80729166666664,0)" xlink:href="#K"/></g><path d="M798-719v166H144v-166h654" id="L"/><g id="l"><use transform="matrix(0.01953125,0,0,0.01953125,0,0)" xlink:href="#m"/><use transform="matrix(0.01953125,0,0,0.01953125,25.33203125,0)" xlink:href="#n"/><use transform="matrix(0.01953125,0,0,0.01953125,64.74609375,0)" xlink:href="#o"/><use transform="matrix(0.01953125,0,0,0.01953125,90.41015625,0)" xlink:href="#L"/><use transform="matrix(0.01953125,0,0,0.01953125,107.4609375,0)" xlink:href="#m"/><use transform="matrix(0.01953125,0,0,0.01953125,135.05859375,0)" xlink:href="#r"/><use transform="matrix(0.01953125,0,0,0.01953125,158.7109375,0)" xlink:href="#t"/><use transform="matrix(0.01953125,0,0,0.01953125,171.796875,0)" xlink:href="#E"/></g></defs></g></svg>